<svg width="20" height="18" viewBox="0 0 20 18" fill="none" xmlns="http://www.w3.org/2000/svg">
<path d="M11.125 0.915497H9.25L1 14.9508H3.4375L4.5625 12.9457L11.125 0.915497Z" fill="#2C36F2"/>
<path d="M2.125 17.3568H17.875L11.125 4.92557L10 6.93061L13.375 12.9457L14.5 14.9508H3.4375H1L2.125 17.3568Z" fill="#2C36F2"/>
<path d="M14.5 14.9508L13.375 12.9457H6.625H4.5625L3.4375 14.9508H14.5Z" fill="#2C36F2"/>
<path d="M17.875 17.3568L19 14.9508L11.125 0.915497L4.5625 12.9457H6.625L10 6.93061L11.125 4.92557L17.875 17.3568Z" fill="#2C36F2"/>
<path d="M10 6.93061L6.625 12.9457H13.375L10 6.93061Z" fill="#2C36F2"/>
<path d="M17.875 17.3568H2.125L1 14.9508M17.875 17.3568L19 14.9508L11.125 0.915497M17.875 17.3568L11.125 4.92557L10 6.93061M11.125 0.915497H9.25L1 14.9508M11.125 0.915497L4.5625 12.9457M1 14.9508H3.4375M10 6.93061L6.625 12.9457M10 6.93061L13.375 12.9457M6.625 12.9457H13.375M6.625 12.9457H4.5625M13.375 12.9457L14.5 14.9508H3.4375M4.5625 12.9457L3.4375 14.9508" stroke="#F6F7FF"/>
</svg>
